# xmcd CD database file
#
# Track frame offsets:
#	150
#	17495
#	39281
#	66970
#	83674
#	102457
#	130478
#	158736
#	162129
#	174820
#	192734
#	205378
#	224899
#
# Disc length: 3238 seconds
#
# Revision: 0
# Processed by: cddbd v1.5.2PL0 Copyright (c) Steve Scherf et al.
# Submitted via: CDex 1.51
#
DISCID=b50ca40d
DTITLE=Three Fall - Realize!
DYEAR=2013
DGENRE=Jazz
TTITLE0=Nevertheless
TTITLE1=Realize!
TTITLE2=Bata
TTITLE3=Chai
TTITLE4=Endless
TTITLE5=Killing in the Name
TTITLE6=Stein
TTITLE7=Wusel
TTITLE8=Drunken Master
TTITLE9=Chapa Chapa Maputo
TTITLE10=Lithium
TTITLE11=Bones and Steaks
TTITLE12=The Scientist
EXTD=YEAR: 2013
EXTT0=
EXTT1=
EXTT2=
EXTT3=
EXTT4=
EXTT5=
EXTT6=
EXTT7=
EXTT8=
EXTT9=
EXTT10=
EXTT11=
EXTT12=
PLAYORDER=
